<svg width="23" height="58" viewBox="0 0 23 58" fill="none" xmlns="http://www.w3.org/2000/svg">
<path d="M6.52675 15.3313L8.30545 12.7114C7.97139 10.1306 8.17226 5.43922 10.1793 4.92149C11.0159 4.78934 12.0374 5.31826 12.3871 6.50991C13.3533 9.80188 11.8085 11.5938 10.0966 13.9539L7.0181 18.4881L7.0129 18.4843C4.26193 22.8221 0.659637 28.2251 0.88468 32.6839C1.32274 39.2155 6.84357 44.9801 13.4567 43.5062L12.7062 41.4156C8.12764 41.6013 3.48049 37.6259 4.26759 32.8774C5.80374 25.1896 11.3897 20.2454 15.1088 12.8223C16.158 10.7279 15.8834 6.92048 15.2215 5.04596C14.5596 3.17132 12.6247 0.201346 10.4706 0.332525C6.23362 0.498105 4.50779 9.03607 6.52687 15.3313L6.52675 15.3313ZM11.1494 23.8611L9.61203 25.9995C9.73373 26.3195 9.87827 26.7136 10.1107 27.4053C6.49307 30.6707 7.11654 36.1176 10.5256 38.5107C11.2525 39.038 12.2785 37.8688 11.5531 37.2679C9.83727 35.1321 9.20475 32.2623 11.0642 30.3313C13.1505 36.1821 16.4107 43.8069 18.1757 50.1057C18.2917 50.5201 17.607 51.5078 17.2197 51.6706C16.7657 49.0343 14.2606 47.2651 11.6242 47.719C8.98805 48.173 7.21873 50.6782 7.67268 53.3145C8.08965 55.7239 10.2344 57.2978 12.6793 57.3266C17.8516 57.3877 21.6977 53.57 20.2699 49.4875C18.0069 42.6199 15.1596 35.4986 12.9849 29.1993C14.399 28.8019 16.537 29.2228 17.5961 29.9839C18.8104 30.9172 19.6008 32.385 19.6997 33.6504C19.7941 34.858 19.245 36.3081 18.2881 37.6266L19.1521 40.0307C20.9635 38.1726 22.7226 35.7069 22.5361 33.3233C22.3813 31.3407 21.1096 28.6141 19.3044 27.4567C16.9721 25.9615 14.3509 26.03 12.1191 26.6528C11.6115 25.1348 11.3883 24.5621 11.1494 23.8611Z" fill="black"/>
</svg>
