<svg width="14" height="14" viewBox="0 0 14 14" fill="none" xmlns="http://www.w3.org/2000/svg">
<path d="M7.00312 3.40635C5.01562 3.40635 3.4125 5.00947 3.4125 6.99697C3.4125 8.98447 5.01562 10.5876 7.00312 10.5876C8.99062 10.5876 10.5938 8.98447 10.5938 6.99697C10.5938 5.00947 8.99062 3.40635 7.00312 3.40635ZM7.00312 9.33135C5.71875 9.33135 4.66875 8.28447 4.66875 6.99697C4.66875 5.70947 5.71562 4.6626 7.00312 4.6626C8.29062 4.6626 9.3375 5.70947 9.3375 6.99697C9.3375 8.28447 8.2875 9.33135 7.00312 9.33135ZM11.5781 3.25947C11.5781 3.7251 11.2031 4.09697 10.7406 4.09697C10.275 4.09697 9.90312 3.72197 9.90312 3.25947C9.90312 2.79697 10.2781 2.42197 10.7406 2.42197C11.2031 2.42197 11.5781 2.79697 11.5781 3.25947ZM13.9563 4.10947C13.9031 2.9876 13.6469 1.99385 12.825 1.1751C12.0062 0.356348 11.0125 0.100098 9.89062 0.0438477C8.73438 -0.0217773 5.26875 -0.0217773 4.1125 0.0438477C2.99375 0.0969727 2 0.353223 1.17812 1.17197C0.35625 1.99072 0.103125 2.98447 0.0468746 4.10635C-0.0187504 5.2626 -0.0187504 8.72822 0.0468746 9.88447C0.0999996 11.0063 0.35625 12.0001 1.17812 12.8188C2 13.6376 2.99062 13.8938 4.1125 13.9501C5.26875 14.0157 8.73438 14.0157 9.89062 13.9501C11.0125 13.897 12.0062 13.6407 12.825 12.8188C13.6438 12.0001 13.9 11.0063 13.9563 9.88447C14.0219 8.72822 14.0219 5.26572 13.9563 4.10947ZM12.4625 11.1251C12.2188 11.7376 11.7469 12.2095 11.1313 12.4563C10.2094 12.822 8.02187 12.7376 7.00312 12.7376C5.98438 12.7376 3.79375 12.8188 2.875 12.4563C2.2625 12.2126 1.79062 11.7407 1.54375 11.1251C1.17812 10.2032 1.2625 8.01572 1.2625 6.99697C1.2625 5.97822 1.18125 3.7876 1.54375 2.86885C1.7875 2.25635 2.25937 1.78447 2.875 1.5376C3.79687 1.17197 5.98438 1.25635 7.00312 1.25635C8.02187 1.25635 10.2125 1.1751 11.1313 1.5376C11.7438 1.78135 12.2156 2.25322 12.4625 2.86885C12.8281 3.79072 12.7437 5.97822 12.7437 6.99697C12.7437 8.01572 12.8281 10.2063 12.4625 11.1251Z" fill="white"/>
</svg>
