<svg width="21" height="21" viewBox="0 0 21 21" fill="none" xmlns="http://www.w3.org/2000/svg">
<g clip-path="url(#clip0_401_23)">
<path d="M11.9138 18.8045C11.7943 18.6849 11.7271 18.5226 11.7271 18.3535C11.7271 18.1843 11.7943 18.0221 11.9138 17.9024L18.4832 11.332L1.30076 11.332C1.13147 11.332 0.96911 11.2647 0.849403 11.145C0.729694 11.0253 0.662445 10.863 0.662445 10.6937C0.662445 10.5244 0.729694 10.362 0.849403 10.2423C0.96911 10.1226 1.13147 10.0554 1.30076 10.0554L18.4832 10.0554L11.9138 3.48497C11.8011 3.36397 11.7397 3.20392 11.7426 3.03855C11.7455 2.87319 11.8125 2.71541 11.9295 2.59846C12.0464 2.48151 12.2042 2.41452 12.3696 2.4116C12.5349 2.40868 12.695 2.47006 12.816 2.58282L20.4758 10.2426C20.5953 10.3623 20.6624 10.5245 20.6624 10.6937C20.6624 10.8628 20.5953 11.0251 20.4758 11.1448L12.816 18.8045C12.6963 18.9241 12.5341 18.9912 12.3649 18.9912C12.1957 18.9912 12.0335 18.9241 11.9138 18.8045Z" fill="black"/>
<path d="M11.9138 18.8045C11.7943 18.6849 11.7271 18.5226 11.7271 18.3535C11.7271 18.1843 11.7943 18.0221 11.9138 17.9024L18.4832 11.332L1.30076 11.332C1.13147 11.332 0.96911 11.2647 0.849403 11.145C0.729694 11.0253 0.662445 10.863 0.662445 10.6937C0.662445 10.5244 0.729694 10.362 0.849403 10.2423C0.96911 10.1226 1.13147 10.0554 1.30076 10.0554L18.4832 10.0554L11.9138 3.48497C11.8011 3.36397 11.7397 3.20392 11.7426 3.03855C11.7455 2.87319 11.8125 2.71541 11.9295 2.59846C12.0464 2.48151 12.2042 2.41452 12.3696 2.4116C12.5349 2.40868 12.695 2.47006 12.816 2.58282L20.4758 10.2426C20.5953 10.3623 20.6624 10.5245 20.6624 10.6937C20.6624 10.8628 20.5953 11.0251 20.4758 11.1448L12.816 18.8045C12.6963 18.9241 12.5341 18.9912 12.3649 18.9912C12.1957 18.9912 12.0335 18.9241 11.9138 18.8045Z" fill="white"/>
</g>
<defs>
<clipPath id="clip0_401_23">
<rect width="20" height="20" fill="white" transform="translate(20.8239 0.514526) rotate(90)"/>
</clipPath>
</defs>
</svg>
