<svg width="20" height="15" viewBox="0 0 20 15" fill="none" xmlns="http://www.w3.org/2000/svg">
<path d="M7.93044 10.2737V4.3646L13.1419 7.31928L7.93044 10.2737ZM19.5227 2.50529C19.2934 1.64474 18.6177 0.967097 17.7599 0.737113C16.2049 0.319145 9.9697 0.319145 9.9697 0.319145C9.9697 0.319145 3.73448 0.319145 2.1795 0.737113C1.32162 0.967097 0.645941 1.64474 0.416657 2.50529C0 4.06497 0 7.31914 0 7.31914C0 7.31914 0 10.5733 0.416657 12.133C0.645941 12.9935 1.32162 13.6712 2.1795 13.9013C3.73448 14.3191 9.9697 14.3191 9.9697 14.3191C9.9697 14.3191 16.2049 14.3191 17.7599 13.9013C18.6177 13.6712 19.2934 12.9935 19.5227 12.133C19.9394 10.5733 19.9394 7.31914 19.9394 7.31914C19.9394 7.31914 19.9394 4.06497 19.5227 2.50529Z" fill="white"/>
</svg>
