<svg width="1890" height="546" viewBox="0 0 1890 546" fill="none" xmlns="http://www.w3.org/2000/svg">
<path d="M1250.27 353.674C1174.82 353.674 1113.46 292.623 1113.46 217.545C1113.46 142.488 1174.82 81.4152 1250.27 81.4152C1325.7 81.4152 1387.06 142.488 1387.06 217.545C1387.06 292.623 1325.7 353.674 1250.27 353.674ZM1604.76 354.115C1548.28 354.115 1508.4 332.044 1486.18 288.54C1468.67 254.203 1467.93 217.761 1467.93 217.404C1467.93 217.214 1468.72 180.969 1486.17 146.996C1508.38 103.752 1548.26 81.8355 1604.76 81.8355C1661.38 81.8355 1701.34 103.1 1723.49 145.054C1740.85 177.939 1741.55 212.817 1741.55 213.161C1741.51 218.792 1739.16 354.115 1604.76 354.115ZM354.549 228.351V418.421V418.504H421.819V228.309C421.819 228.021 422.573 189.918 440.954 154.038C464.275 108.5 506.145 85.398 565.41 85.398C624.653 85.398 666.53 108.5 689.865 154.038C708.274 189.967 708.979 228.022 708.979 228.414V418.504H776.271V366.451C813.44 399.975 860.745 418.42 911.305 418.42C979.717 418.42 1043.66 383.41 1080.8 326.426C1117.91 383.452 1181.85 418.476 1250.27 418.476C1323.23 418.476 1390.93 378.451 1426.44 315.52C1426.55 315.688 1427 316.684 1427 316.684C1450.48 363.548 1500.38 419.367 1604.76 419.367C1659.9 419.367 1706.77 402.269 1741.55 369.986V428.835C1741.43 440.94 1737.33 480.664 1689.54 480.664H1421.21V545.951H1689.54C1750.1 545.951 1779.29 513.199 1793.09 485.706C1806.75 458.53 1807.18 431.879 1807.18 428.926V35.3085H1741.55V63.6776C1706.77 32.8959 1659.88 16.5689 1604.76 16.5689C1500.4 16.5689 1450.52 72.1147 1427.04 118.725C1427.04 118.725 1426.84 119.161 1426.55 119.77C1391.05 56.6852 1323.29 16.6179 1250.27 16.6179C1181.85 16.6179 1117.85 51.6778 1080.74 108.717C1053.51 66.8968 1011.23 35.8766 962.951 23.1684L954.705 21.0013V88.1122C954.705 88.1122 954.733 111.656 954.733 117.933C947.946 121.306 848.136 170.842 848.136 170.842V236.255L954.69 179.945V185.472C954.705 185.457 954.732 185.457 954.76 185.443V192.568C954.732 192.583 954.69 192.612 954.69 192.612V196.574L848.136 252.87V318.017L994.2 240.38V114.679C1025.54 139.696 1044.05 177.175 1044.05 217.46C1044.05 290.266 984.509 349.507 911.304 349.507C838.135 349.507 778.596 290.266 778.596 217.46C778.596 144.626 838.135 85.3984 911.304 85.3984C920.805 85.3984 930.347 86.4995 939.742 88.5404V18.561C930.235 17.2004 920.699 16.4641 911.304 16.4641C842.617 16.4641 778.575 51.6782 741.511 108.977C714.701 65.6277 663.097 18.4418 565.409 18.4418C466.769 18.4418 415.067 66.4343 388.299 110.717C361.666 66.0836 310.063 17.3687 211.444 16.0082C152.433 15.1876 104.058 32.2792 67.3953 66.5394V38.0512H0.117645V418.505H67.3953V418.421V228.226C67.3953 227.952 68.1424 189.877 86.5158 153.968C109.844 108.43 151.721 85.3425 210.972 85.3425C270.222 85.3425 312.099 108.43 335.434 153.968C353.85 189.898 354.549 227.952 354.549 228.351Z" fill="black"/>
<path d="M1849 53.855H1841.06V12.4937H1856.49C1866.53 12.4937 1872.12 15.7834 1872.12 24.7743C1872.12 32.2641 1867.68 35.2584 1862.32 35.8652L1872.12 53.855H1863.25L1854.15 36.1686H1849V53.855ZM1849 29.8687H1856.02C1861.85 29.8687 1863.96 27.9363 1863.96 24.0317C1863.96 20.1351 1861.4 18.9374 1855.56 18.9374H1849.01V29.8687H1849Z" fill="black"/>
<path d="M1889.06 33.1706C1889.06 51.0162 1874.52 65.4829 1856.59 65.4829C1838.66 65.4829 1824.12 51.0162 1824.12 33.1706C1824.12 15.3251 1838.66 0.858398 1856.59 0.858398C1874.52 0.858398 1889.06 15.3251 1889.06 33.1706Z" stroke="black"/>
</svg>
